<?xml version="1.0" encoding="UTF-8" standalone="no"?>
<!DOCTYPE svg PUBLIC "-//W3C//DTD SVG 1.1//EN" "http://www.w3.org/Graphics/SVG/1.1/DTD/svg11.dtd">
<svg xmlns="http://www.w3.org/2000/svg" version="1.1" viewBox="0.00 0.00 400.00 400.00">
<path fill="#ffe9e5" d="
  M 178.83 237.23
  Q 174.33 239.92 169.85 242.64
  Q 154.73 251.84 144.79 266.08
  C 142.83 268.89 141.47 272.18 139.94 275.31
  Q 136.93 281.49 136.34 287.69
  Q 136.31 288.00 136.01 288.00
  L 77.72 288.00
  A 0.50 0.50 0.0 0 1 77.35 287.17
  C 78.82 285.49 79.44 283.43 80.65 281.59
  Q 85.34 274.43 90.04 269.11
  C 98.66 259.35 108.43 250.17 119.07 242.58
  C 123.22 239.63 127.04 236.43 131.38 233.77
  Q 138.73 229.25 146.13 223.90
  C 156.56 216.36 167.75 209.70 178.52 201.95
  Q 179.37 201.34 179.37 200.29
  L 179.48 143.24
  Q 179.48 141.49 177.74 141.49
  L 77.81 141.49
  A 0.69 0.68 0.0 0 1 77.12 140.81
  L 77.02 112.74
  Q 77.02 112.00 77.76 112.00
  L 325.26 112.00
  Q 326.50 112.00 326.09 113.17
  Q 325.87 113.79 325.99 114.71
  Q 326.13 115.74 326.11 116.31
  Q 325.88 128.71 326.12 140.31
  A 1.13 1.13 0.0 0 1 324.99 141.47
  L 224.94 141.51
  Q 223.90 141.51 223.91 142.55
  L 224.01 174.21
  A 0.83 0.83 0.0 0 0 225.39 174.83
  Q 227.96 172.59 231.07 170.87
  C 235.83 168.23 239.92 163.99 244.43 161.05
  C 248.48 158.41 251.95 155.04 255.87 152.49
  C 257.81 151.24 260.21 151.00 262.53 151.00
  Q 283.45 151.02 305.69 150.81
  Q 306.79 150.80 305.95 151.51
  Q 305.61 151.79 305.27 152.02
  Q 288.14 163.99 274.88 173.75
  C 265.87 180.39 257.06 186.34 247.93 192.39
  Q 239.25 198.13 231.44 205.19
  A 0.69 0.69 0.0 0 0 231.66 206.35
  Q 233.11 206.89 234.34 207.72
  C 242.04 212.94 250.14 217.84 257.56 223.66
  C 263.50 228.31 270.11 232.06 276.34 236.57
  Q 281.37 240.20 286.23 243.50
  Q 290.42 246.34 300.99 255.74
  Q 313.14 266.53 322.20 280.19
  Q 323.88 282.71 325.17 285.61
  Q 325.40 286.11 325.75 286.44
  Q 326.05 286.71 326.45 286.85
  Q 326.91 287.00 326.66 287.41
  Q 326.32 287.95 325.50 287.95
  Q 296.22 288.03 267.78 287.99
  Q 266.96 287.99 266.93 287.17
  Q 266.79 283.99 265.76 280.75
  Q 262.14 269.32 253.84 259.80
  Q 247.05 252.02 241.22 247.82
  Q 237.99 245.48 234.47 243.01
  C 231.35 240.81 228.08 239.25 224.95 237.17
  A 0.67 0.66 16.9 0 0 223.91 237.72
  L 223.93 287.47
  A 0.53 0.52 -0.0 0 1 223.40 287.99
  L 179.74 288.00
  A 0.33 0.33 0.0 0 1 179.41 287.67
  L 179.44 237.57
  A 0.40 0.40 0.0 0 0 178.83 237.23
  Z"
/>
<path fill="#ffe9e5" d="
  M 145.10 151.14
  L 167.01 166.72
  A 0.91 0.91 0.0 0 1 167.39 167.46
  L 167.39 200.39
  A 0.91 0.91 0.0 0 1 165.95 201.13
  L 97.57 152.61
  A 0.91 0.91 0.0 0 1 98.10 150.96
  L 144.57 150.97
  A 0.91 0.91 0.0 0 1 145.10 151.14
  Z"
/>
</svg>
