<?xml version="1.0" encoding="UTF-8" standalone="no"?>
<!DOCTYPE svg PUBLIC "-//W3C//DTD SVG 1.1//EN" "http://www.w3.org/Graphics/SVG/1.1/DTD/svg11.dtd">
<svg xmlns="http://www.w3.org/2000/svg" version="1.1" viewBox="0.00 0.00 1058.00 400.00">
<path fill="#ffe9e5" d="
  M 0.00 140.13
  L 0.00 112.02
  L 248.17 112.00
  Q 249.09 112.00 249.09 112.93
  L 249.04 140.34
  A 1.13 1.13 0.0 0 1 247.91 141.47
  L 147.96 141.51
  A 1.04 1.04 0.0 0 0 146.92 142.55
  L 147.02 174.19
  A 0.85 0.85 0.0 0 0 148.45 174.81
  Q 150.31 173.06 152.67 171.69
  C 158.22 168.47 162.77 164.20 168.07 160.59
  Q 173.35 156.98 178.17 152.83
  C 179.71 151.50 181.94 151.03 183.94 151.03
  Q 205.60 151.04 228.56 150.86
  Q 229.74 150.85 228.81 151.58
  Q 228.54 151.79 228.27 151.99
  Q 208.16 166.22 190.16 179.26
  C 180.48 186.27 169.62 193.07 159.95 200.37
  Q 157.89 201.93 154.43 205.39
  Q 154.00 205.81 154.48 206.18
  C 155.43 206.90 156.56 207.09 157.57 207.80
  Q 164.32 212.54 171.75 217.31
  C 177.38 220.93 182.46 225.42 188.27 229.14
  C 195.90 234.01 203.11 239.09 209.94 244.10
  Q 228.80 257.92 242.37 276.03
  Q 245.77 280.57 248.29 285.82
  Q 248.49 286.25 248.84 286.50
  Q 249.10 286.70 249.43 286.79
  A 0.42 0.42 0.0 0 1 249.65 287.45
  Q 249.27 287.94 248.50 287.94
  Q 219.33 288.02 190.78 287.99
  Q 189.79 287.99 189.90 287.00
  Q 189.96 286.48 189.88 285.97
  Q 188.65 277.83 183.64 269.18
  Q 177.98 259.42 165.82 248.97
  C 163.37 246.86 160.43 245.40 157.87 243.35
  C 154.81 240.90 151.25 239.43 148.04 237.20
  A 0.70 0.70 0.0 0 0 146.94 237.78
  L 146.95 287.21
  A 0.79 0.79 0.0 0 1 146.16 288.00
  L 102.74 288.00
  A 0.33 0.33 0.0 0 1 102.41 287.67
  L 102.48 237.53
  A 0.38 0.38 0.0 0 0 101.91 237.20
  Q 96.81 240.07 91.58 243.39
  Q 77.55 252.28 67.88 265.98
  C 65.72 269.05 64.27 272.60 62.66 275.97
  Q 59.89 281.76 59.35 287.66
  Q 59.32 288.00 58.98 288.00
  L 0.72 288.00
  A 0.49 0.49 0.0 0 1 0.34 287.19
  C 1.89 285.36 2.67 283.11 3.99 281.09
  C 12.79 267.68 25.37 255.28 37.62 245.92
  Q 42.03 242.56 46.28 239.42
  Q 50.52 236.29 55.02 233.37
  Q 64.75 227.07 73.67 220.76
  C 82.64 214.41 92.61 208.57 101.89 201.62
  Q 102.38 201.26 102.38 200.64
  L 102.49 142.99
  Q 102.49 141.49 100.99 141.49
  Q 51.62 141.50 2.00 141.48
  Q 0.10 141.48 0.00 140.13
  Z"
/>
<path fill="#ffe9e5" d="
  M 792.55 179.08
  Q 793.24 179.45 793.72 178.83
  Q 804.36 165.10 813.91 151.96
  Q 814.91 150.60 818.34 147.56
  A 1.94 1.93 -69.5 0 1 819.36 147.09
  Q 826.53 146.10 833.42 147.26
  A 1.65 1.64 70.8 0 1 834.26 147.67
  Q 839.24 152.28 835.32 158.28
  C 827.45 170.32 820.90 178.36 809.41 192.42
  Q 807.72 194.49 807.19 197.77
  Q 807.10 198.33 807.56 198.65
  C 810.88 200.98 812.72 205.90 815.11 209.15
  C 822.60 219.30 830.13 229.81 837.37 240.59
  C 839.31 243.48 840.38 246.90 837.22 249.13
  Q 835.97 250.01 834.28 250.01
  Q 827.07 250.03 820.75 249.97
  Q 819.72 249.96 818.91 249.32
  Q 816.76 247.62 815.01 245.13
  Q 808.35 235.68 801.83 227.28
  C 799.37 224.12 797.09 218.69 792.90 217.64
  A 1.55 1.52 33.5 0 0 791.61 217.89
  C 789.28 219.59 787.14 223.32 785.92 225.76
  C 784.99 227.64 783.38 228.86 782.17 230.55
  Q 776.50 238.48 771.25 245.48
  Q 769.73 247.49 767.87 249.40
  Q 767.45 249.82 766.86 249.85
  Q 760.04 250.12 753.03 250.03
  Q 750.63 249.99 748.70 249.10
  A 1.72 1.70 -89.7 0 1 747.86 248.24
  Q 746.49 245.13 747.80 242.12
  Q 749.74 237.67 753.42 232.80
  Q 760.54 223.37 767.99 213.58
  C 771.58 208.87 774.76 203.99 778.62 199.40
  Q 779.67 198.15 779.96 196.49
  Q 780.03 196.06 779.82 195.69
  Q 777.44 191.59 774.50 189.00
  Q 771.79 186.61 770.54 184.84
  Q 761.75 172.42 751.43 158.53
  Q 749.87 156.43 748.59 154.21
  A 1.73 1.73 0.0 0 1 748.78 152.22
  C 750.75 149.92 752.74 147.32 755.95 146.89
  C 758.32 146.58 760.62 146.69 762.97 146.58
  Q 767.91 146.36 770.78 149.95
  Q 780.80 162.47 790.50 177.18
  Q 791.31 178.41 792.55 179.08
  Z"
/>
<path fill="#ffe9e5" d="
  M 615.74 239.25
  C 615.74 243.55 614.75 249.10 609.52 249.75
  Q 602.92 250.57 597.88 249.66
  C 591.22 248.46 593.74 241.09 593.80 236.58
  Q 594.35 195.02 593.55 153.22
  Q 593.54 152.38 594.13 151.79
  C 597.94 148.02 602.99 145.38 608.46 147.61
  Q 615.26 150.38 615.60 158.47
  Q 615.85 164.26 615.83 170.25
  Q 615.71 204.75 615.74 239.25
  Z"
/>
<path fill="#ffe9e5" d="
  M 663.61 232.10
  C 661.98 235.62 660.33 239.01 658.84 242.50
  Q 657.13 246.49 653.71 249.38
  Q 653.28 249.75 652.71 249.81
  C 646.39 250.53 637.70 250.72 632.67 247.13
  Q 632.17 246.77 632.20 246.15
  C 632.36 243.62 634.32 241.97 635.47 239.79
  Q 641.37 228.54 646.78 218.28
  Q 649.03 214.00 653.55 203.65
  Q 655.04 200.24 656.92 197.11
  C 658.54 194.44 659.09 191.48 660.77 188.83
  Q 662.96 185.39 664.43 181.56
  Q 665.43 178.96 666.94 176.50
  C 668.50 173.96 669.36 171.14 670.86 168.51
  Q 674.53 162.10 677.47 155.76
  C 678.81 152.87 680.85 150.59 682.30 147.76
  A 2.08 2.08 0.0 0 1 686.07 147.90
  C 686.37 148.61 686.38 149.11 686.88 149.77
  C 690.51 154.51 692.54 159.84 695.43 164.85
  C 699.77 172.34 703.15 180.38 707.21 188.14
  Q 709.40 192.34 711.18 196.37
  Q 712.82 200.06 715.09 204.48
  Q 723.68 221.17 732.55 238.41
  C 733.12 239.51 734.03 240.52 734.88 241.39
  Q 735.34 241.85 734.98 242.39
  Q 733.57 244.52 734.06 247.48
  A 2.13 2.13 0.0 0 1 731.96 249.96
  L 716.01 249.98
  A 2.45 2.43 69.0 0 1 714.19 249.16
  Q 711.18 245.77 709.27 241.42
  Q 707.21 236.74 704.51 231.99
  Q 704.25 231.54 703.73 231.54
  L 664.44 231.57
  Q 663.85 231.58 663.61 232.10
  Z
  M 674.00 209.62
  A 0.31 0.31 0.0 0 0 674.28 210.06
  L 694.00 210.03
  A 0.31 0.31 0.0 0 0 694.28 209.59
  L 684.39 188.20
  A 0.31 0.31 0.0 0 0 683.82 188.20
  L 674.00 209.62
  Z"
/>
<path fill="#ffe9e5" d="
  M 851.48 184.22
  C 854.85 177.75 857.55 170.45 862.13 165.54
  Q 873.48 153.38 887.04 148.47
  C 893.53 146.11 902.03 146.62 909.16 146.94
  Q 915.05 147.21 920.89 147.88
  Q 921.88 147.99 922.67 148.56
  Q 923.52 149.18 924.52 149.61
  Q 934.65 153.98 942.37 161.92
  C 944.77 164.39 947.03 167.29 945.43 170.87
  Q 943.41 175.42 940.45 179.17
  C 938.10 182.15 934.00 180.78 931.43 178.91
  C 927.32 175.92 923.53 172.94 918.65 171.08
  Q 912.05 168.55 906.73 168.29
  Q 890.39 167.49 878.82 179.42
  Q 872.11 186.34 871.02 196.18
  C 869.49 209.94 876.83 222.91 889.38 228.69
  Q 904.66 235.72 920.44 228.28
  C 924.47 226.38 927.74 223.23 931.31 220.62
  C 933.28 219.17 935.74 218.07 937.89 219.99
  Q 941.89 223.55 944.60 227.35
  C 945.90 229.18 946.52 233.83 944.97 235.69
  Q 934.87 247.77 922.36 250.59
  Q 919.53 251.22 916.84 252.06
  C 912.83 253.31 908.53 253.17 904.41 253.44
  Q 893.29 254.18 880.98 248.82
  Q 874.17 245.85 869.89 242.18
  C 859.34 233.13 849.28 219.78 849.48 205.11
  C 849.51 202.49 849.10 199.92 849.42 197.29
  Q 849.82 193.94 849.80 190.75
  Q 849.79 189.22 850.45 187.90
  C 851.04 186.74 850.84 185.46 851.48 184.22
  Z"
/>
<path fill="#ffe9e5" d="
  M 985.29 232.03
  C 983.99 235.62 979.11 250.09 974.22 250.02
  C 969.42 249.95 963.14 250.78 958.81 248.92
  C 955.18 247.37 954.85 244.22 957.01 241.41
  Q 958.10 240.00 958.84 238.59
  Q 964.71 227.34 969.97 216.27
  Q 975.15 205.36 978.69 198.29
  Q 988.22 179.28 997.71 160.25
  Q 998.57 158.53 999.63 157.07
  C 1000.65 155.68 1001.79 154.74 1002.19 152.93
  Q 1003.15 148.48 1008.13 148.12
  Q 1008.78 148.08 1009.12 148.62
  C 1011.59 152.57 1014.18 156.00 1016.17 160.39
  Q 1019.29 167.25 1022.50 174.12
  C 1025.43 180.38 1028.61 186.11 1031.65 192.62
  Q 1037.11 204.28 1045.05 219.89
  C 1045.92 221.58 1046.45 223.89 1047.43 225.57
  Q 1052.06 233.54 1055.90 242.12
  Q 1056.43 243.31 1057.36 244.33
  A 1.03 1.03 0.0 0 1 1057.27 245.82
  Q 1055.89 246.98 1055.16 248.60
  Q 1054.62 249.79 1053.30 249.84
  Q 1045.79 250.09 1039.43 249.94
  C 1031.65 249.76 1031.26 231.56 1024.33 231.54
  Q 1014.66 231.51 1004.73 231.56
  C 1001.87 231.58 998.93 230.46 996.31 231.00
  Q 991.50 231.99 986.18 231.47
  Q 985.52 231.40 985.29 232.03
  Z
  M 1005.62 188.98
  L 1005.49 191.27
  Q 1005.47 191.74 1005.22 192.15
  C 1004.00 194.11 1002.49 195.90 1001.61 198.08
  Q 999.44 203.41 996.32 208.99
  A 0.74 0.74 0.0 0 0 996.96 210.09
  L 1014.78 210.20
  A 1.32 1.31 78.4 0 0 1015.99 208.36
  Q 1011.68 198.41 1007.20 189.50
  Q 1006.90 188.89 1006.27 188.59
  Q 1005.65 188.31 1005.62 188.98
  Z"
/>
<path fill="#ffe9e5" d="
  M 339.25 171.13
  Q 334.13 169.99 329.40 170.32
  C 325.53 170.58 321.46 170.28 317.72 169.53
  Q 313.99 168.79 313.62 165.45
  A 1.17 1.16 5.0 0 0 312.79 164.47
  Q 312.02 164.24 311.62 163.61
  A 1.25 1.25 0.0 0 1 311.57 162.40
  Q 312.67 160.25 312.35 158.04
  C 311.89 154.85 314.92 151.37 317.20 149.70
  Q 317.71 149.33 318.34 149.33
  Q 329.39 149.32 339.77 149.37
  Q 339.85 149.37 354.21 149.66
  Q 365.44 149.89 376.49 149.33
  C 381.68 149.07 385.28 152.86 386.77 157.54
  C 387.87 160.99 385.60 164.69 383.92 167.58
  Q 383.06 169.05 381.33 169.62
  C 378.24 170.64 375.38 172.12 372.05 172.04
  Q 367.04 171.93 361.85 172.08
  A 1.60 1.58 2.0 0 0 360.31 173.50
  Q 360.09 175.58 360.07 177.76
  Q 359.83 209.63 360.28 239.99
  C 360.32 242.73 360.10 245.44 359.99 248.19
  A 2.87 2.87 0.0 0 1 357.16 250.95
  Q 351.60 251.03 345.56 251.04
  C 342.45 251.05 341.27 250.09 339.05 248.46
  A 1.57 1.56 27.3 0 1 338.49 246.73
  Q 339.44 243.73 339.45 240.98
  Q 339.62 205.67 339.54 171.50
  Q 339.54 171.20 339.25 171.13
  Z"
/>
<path fill="#ffe9e5" d="
  M 422.52 233.08
  C 421.04 235.70 419.65 238.52 418.85 241.59
  Q 417.65 246.25 413.79 250.69
  Q 413.47 251.06 412.97 251.06
  L 397.39 251.07
  Q 396.61 251.07 396.19 250.41
  L 393.94 246.92
  A 2.50 2.49 41.4 0 1 393.78 244.52
  Q 401.40 228.05 409.94 211.48
  C 411.22 208.99 412.17 206.25 413.68 204.01
  C 415.31 201.60 415.93 198.91 417.25 196.36
  Q 426.75 177.85 433.28 164.52
  C 435.16 160.67 437.32 157.08 439.18 153.33
  C 439.78 152.12 440.62 151.39 441.35 150.31
  A 2.62 2.62 0.0 0 1 445.19 149.75
  L 449.34 153.16
  Q 449.74 153.48 449.84 153.99
  Q 450.14 155.45 450.76 156.75
  Q 458.64 173.26 467.44 190.11
  Q 468.76 192.63 470.00 195.14
  Q 477.61 210.50 484.74 225.24
  Q 487.98 231.97 492.42 239.73
  C 494.42 243.23 495.30 246.79 493.12 250.54
  Q 492.84 251.02 492.28 251.02
  L 475.53 251.02
  Q 473.84 251.02 473.06 249.53
  L 464.55 233.21
  Q 464.28 232.69 463.70 232.69
  L 423.17 232.70
  Q 422.73 232.70 422.52 233.08
  Z
  M 433.27 210.73
  A 0.33 0.33 0.0 0 0 433.57 211.21
  L 454.15 211.24
  A 0.33 0.33 0.0 0 0 454.45 210.77
  L 444.19 189.67
  A 0.33 0.33 0.0 0 0 443.60 189.67
  L 433.27 210.73
  Z"
/>
<path fill="#ffe9e5" d="
  M 547.71 172.07
  A 0.36 0.35 -2.5 0 0 547.37 172.43
  Q 547.57 209.26 547.13 244.11
  Q 547.09 247.34 545.47 250.21
  A 1.39 1.38 -76.9 0 1 544.36 250.91
  Q 537.80 251.36 529.77 250.91
  Q 527.54 250.79 526.90 248.64
  Q 525.93 245.38 525.91 241.50
  Q 525.74 212.23 525.81 173.80
  A 3.12 3.12 0.0 0 0 522.81 170.67
  Q 517.00 170.43 511.60 170.47
  C 509.36 170.48 507.27 169.46 505.16 170.78
  A 1.64 1.63 -34.5 0 1 502.99 170.38
  C 500.88 167.59 496.27 160.79 497.87 157.03
  C 498.88 154.65 502.36 149.09 505.25 149.38
  Q 506.11 149.46 506.89 149.46
  Q 534.78 149.43 561.91 149.27
  Q 563.72 149.26 565.17 150.07
  Q 567.24 151.22 568.42 152.75
  C 570.98 156.04 571.16 162.67 568.44 166.47
  Q 567.01 168.45 565.84 170.65
  A 0.84 0.84 0.0 0 1 564.60 170.93
  L 563.29 169.96
  Q 562.88 169.65 562.38 169.79
  Q 559.27 170.68 556.03 171.60
  C 553.34 172.37 550.49 171.91 547.71 172.07
  Z"
/>
<path fill="#ffe9e5" d="
  M 68.06 151.15
  L 90.02 166.70
  A 0.94 0.94 0.0 0 1 90.42 167.47
  L 90.41 200.33
  A 0.94 0.94 0.0 0 1 88.93 201.10
  L 20.63 152.67
  A 0.94 0.94 0.0 0 1 21.17 150.96
  L 67.52 150.98
  A 0.94 0.94 0.0 0 1 68.06 151.15
  Z"
/>
</svg>
